PathFileType	4	(X/Y/Z)	C:\Users\Basilio\Documents\Thesis Gigler\squatting_fais\c3dfiles\073\SLS_front_pre4\markers_experimental.trc
DataRate	CameraRate	NumFrames	NumMarkers	Units	OrigDataRate	OrigDataStartFrame	OrigNumFrames
200.000000	200.000000	4	61	mm	200.000000	664	1329
Frame#	Time	FHD			LBHD			RBHD			C7			T10			CLAV			LSHO			LUUPA			LMUPA			LDUPA			LLEP			LMEP			LRAD			LUL			LRFIN			RSHO			RUPA1			RMUPA			RDUPA			RLEP			RMEP			RRAD			RUL			RUFIN			LASI			RASI			USACR			LSACR			RSACR			LTHI1			LTHI2			LTHI3			LTHI4			LLFC			LMFC			LTIB1			LTIB2			LTIB3			LTIB4			LLMAL			LMMAL			LHEE			LMT1			LMT2			LMT5			RTHI			RTHI2			RTHI3			RTHI4			RLFC			RMFC			RTIB1			RTIB2			RTIB3			RTIB4			RLMAL			RMMAL			RHEE			RMT1			RMT2			RMT5			
		X1	Y1	Z1	X2	Y2	Z2	X3	Y3	Z3	X4	Y4	Z4	X5	Y5	Z5	X6	Y6	Z6	X7	Y7	Z7	X8	Y8	Z8	X9	Y9	Z9	X10	Y10	Z10	X11	Y11	Z11	X12	Y12	Z12	X13	Y13	Z13	X14	Y14	Z14	X15	Y15	Z15	X16	Y16	Z16	X17	Y17	Z17	X18	Y18	Z18	X19	Y19	Z19	X20	Y20	Z20	X21	Y21	Z21	X22	Y22	Z22	X23	Y23	Z23	X24	Y24	Z24	X25	Y25	Z25	X26	Y26	Z26	X27	Y27	Z27	X28	Y28	Z28	X29	Y29	Z29	X30	Y30	Z30	X31	Y31	Z31	X32	Y32	Z32	X33	Y33	Z33	X34	Y34	Z34	X35	Y35	Z35	X36	Y36	Z36	X37	Y37	Z37	X38	Y38	Z38	X39	Y39	Z39	X40	Y40	Z40	X41	Y41	Z41	X42	Y42	Z42	X43	Y43	Z43	X44	Y44	Z44	X45	Y45	Z45	X46	Y46	Z46	X47	Y47	Z47	X48	Y48	Z48	X49	Y49	Z49	X50	Y50	Z50	X51	Y51	Z51	X52	Y52	Z52	X53	Y53	Z53	X54	Y54	Z54	X55	Y55	Z55	X56	Y56	Z56	X57	Y57	Z57	X58	Y58	Z58	X59	Y59	Z59	X60	Y60	Z60	X61	Y61	Z61	

665	3.32	-128.5823516845703	1352.913330078125	-780.9133300781252	-263.9371948242188	1328.556884765625	-806.813415527344	-288.7931823730469	1311.134765625	-673.3289794921876	-316.3036499023438	1235.321044921875	-739.1226196289064	-528.1557006835939	985.664733886719	-745.8833618164064	-228.3161621093751	1111.222412109375	-737.9025878906251	-236.1664123535157	1182.965698242188	-871.9873657226565	-163.222640991211	1110.47802734375	-971.8101806640627	-121.7163314819336	1126.158447265625	-948.3787841796877	-103.0508117675782	1078.148315429688	-980.9163208007815	-0.0384608842432499	1048.662109375	-984.3094482421877	-4.918150901794434	996.1972656250002	-937.1651611328127	261.2325744628907	1080.277954101563	-877.2088012695315	264.5572204589844	1074.5478515625	-951.5212402343752	341.0748596191407	1095.918212890625	-871.3123779296877	-230.2853088378907	1173.9189453125	-606.3402709960939	-147.9670715332032	1082.051513671875	-500.2958984375001	-108.5311126708985	1102.49072265625	-519.3490600585939	-85.51035308837892	1053.092163085938	-494.5917968750001	7.011218547821047	1035.70458984375	-496.2833862304689	2.87441897392273	980.062438964844	-557.4062500000001	259.1856689453126	1068.339721679688	-618.5947875976564	269.4004211425782	1079.231811523438	-542.8923339843751	344.7108459472657	1094.619873046875	-626.5327758789064	-413.7555541992189	803.0903930664065	-877.461364746094	-407.2190246582032	790.3359985351565	-633.3812255859376	-585.0402221679689	844.0684204101565	-747.3970336914064	-593.7871093750001	814.425964355469	-776.2547607421877	-595.3325805664064	809.833435058594	-720.7435913085939	-220.8301696777344	628.8388061523439	-938.379821777344	-138.7305145263672	624.8314819335939	-915.7405395507815	-125.7966232299805	661.3303222656251	-882.968933105469	-106.538444519043	577.0825195312501	-906.7742309570315	-55.79939651489259	547.9107055664064	-905.3083496093752	-59.89001846313478	538.8131103515626	-764.9513549804689	132.3596496582032	477.6040954589845	-849.8565063476565	134.1329345703125	409.3292236328126	-904.3959960937502	162.7494354248047	437.419158935547	-882.6020507812502	227.040023803711	393.5122680664064	-848.813659667969	290.3683776855469	275.7640686035157	-875.2911376953127	275.2252807617188	295.0208129882813	-790.746032714844	280.2026977539063	208.1678009033204	-834.7612304687502	418.2713623046876	379.7798767089844	-784.871276855469	420.3726806640626	382.6965332031251	-823.4290771484377	419.2432861328126	343.1152648925782	-878.600036621094	-331.3898925781251	582.8624877929689	-583.9885864257814	-265.1349792480469	574.8343505859376	-586.9651489257814	-245.0638275146485	601.3425903320314	-588.0418090820314	-223.3977508544922	507.2280578613282	-612.0286865234376	-123.0378646850586	423.1402893066407	-645.2880249023439	-122.980209350586	436.9106750488282	-775.543884277344	-161.3264923095703	289.2232971191407	-756.8549194335939	-219.9141235351563	222.2227478027344	-694.7960205078126	-204.4609832763672	215.2528839111329	-739.4112548828126	-248.6298980712891	193.9981231689454	-772.4913330078127	-352.3013916015626	96.61106872558597	-721.0610961914064	-342.2568054199219	129.4892578125	-807.225524902344	-432.0583801269532	85.76743316650392	-777.3838500976565	-208.361557006836	54.34098052978517	-787.6885986328127	-209.004867553711	51.04686737060548	-746.4321899414064	-253.2967681884766	34.28281784057618	-699.3470458984376	
666	3.325	-128.306396484375	1352.626342773438	-781.0645751953127	-263.7236022949219	1328.318603515625	-806.8208007812502	-288.4620361328126	1310.875366210938	-673.3473510742189	-316.0179443359376	1235.052856445313	-739.0352172851564	-527.9110717773439	985.5108642578127	-745.8174438476564	-227.9978027343751	1111.036987304688	-737.8331909179689	-235.9552307128907	1182.70703125	-871.9626464843752	-163.0724487304688	1110.218017578125	-971.875427246094	-121.5133285522461	1125.886596679688	-948.400085449219	-102.9327621459961	1077.859985351563	-980.9332275390627	0.1058268398046494	1048.373901367188	-984.2385864257815	-4.807636260986329	995.9302368164065	-937.2092895507815	261.3671875000001	1079.860595703125	-877.2181396484377	264.7090454101563	1074.155639648438	-951.5388183593752	341.1211853027344	1095.59423828125	-871.3533935546877	-229.9896087646485	1173.616333007813	-606.3229370117189	-147.6074829101563	1081.778686523438	-500.2979431152345	-108.273178100586	1102.189086914063	-519.4362182617189	-85.20167541503908	1052.776000976563	-494.6360778808595	7.313649177551271	1035.449584960938	-496.302947998047	3.170305252075196	979.7806396484377	-557.5243530273439	259.3299865722657	1067.995849609375	-618.5787353515626	269.6471252441407	1078.9248046875	-542.9083251953126	344.9638671875001	1094.26904296875	-626.5181274414064	-413.7425231933595	802.929870605469	-877.4360961914065	-407.0084228515626	790.1368408203127	-633.3386840820314	-584.8581542968751	843.9154052734377	-747.3020629882814	-593.7403564453126	814.294372558594	-776.1080322265627	-595.1438598632814	809.7290649414065	-720.6678466796876	-220.7894134521485	628.6353759765626	-938.4219970703127	-138.6285095214844	624.6162719726564	-915.774108886719	-125.6946258544922	661.0985717773439	-883.0379028320315	-106.3919525146485	576.9309692382814	-906.8067016601565	-55.66416549682619	547.7242431640626	-905.3941040039065	-59.81547164916994	538.6153564453126	-764.9595336914064	132.4904937744141	477.4389648437501	-849.9267578125002	134.1945037841797	409.1760253906251	-904.470886230469	162.8571014404297	437.2177124023439	-882.6346435546877	227.1407165527344	393.3359985351564	-848.855895996094	290.5183105468751	275.5736999511719	-875.3541259765627	275.3291931152344	294.8715209960938	-790.7380371093752	280.3619689941407	207.9213867187501	-834.8800048828127	418.4086303710939	379.6653442382813	-784.934997558594	420.5239257812501	382.5873413085938	-823.5915527343752	419.2469482421876	342.9827270507813	-878.6499633789065	-331.1232299804688	582.6979980468751	-584.1624755859376	-264.8548583984376	574.6850585937501	-587.1382446289064	-244.7358703613282	601.1524047851564	-588.2206420898439	-223.1105194091797	507.1054077148439	-612.2309570312501	-122.7122802734375	423.0352478027345	-645.5319213867189	-122.8223495483399	436.9291076660157	-775.8916015625002	-161.1597290039063	289.1671447753907	-757.0576171875001	-219.7628326416016	222.2640686035157	-694.8334960937501	-204.3781433105469	215.2114257812501	-739.4947509765626	-248.5531463623047	193.9422607421876	-772.584411621094	-352.2616271972657	96.60855102539065	-721.0853271484376	-342.1912231445313	129.4955444335938	-807.2556152343752	-432.0325927734376	85.76457977294923	-777.3797607421877	-208.3661804199219	54.30241775512697	-787.7250976562502	-209.0016174316407	51.0316619873047	-746.4125976562501	-253.3031311035157	34.29692077636719	-699.3436279296876	
667	3.33	-128.0638580322266	1352.305297851563	-781.1324462890627	-263.4269714355469	1328.073852539063	-806.7905273437502	-288.1961975097657	1310.624755859375	-673.2872924804689	-315.7344970703126	1234.7802734375	-738.9606323242189	-527.7499389648439	985.3587036132815	-745.7374267578126	-227.7070007324219	1110.825317382813	-737.7614746093751	-235.7708587646485	1182.46044921875	-871.9213867187502	-162.8725891113282	1109.956909179688	-971.9050903320315	-121.3914642333985	1125.623168945313	-948.4001464843752	-102.7316513061524	1077.651123046875	-980.8681640625002	0.2332659363746644	1048.047607421875	-984.221130371094	-4.57679033279419	995.7034301757815	-937.0992431640627	261.5455932617188	1079.435424804688	-877.284606933594	264.7311096191407	1073.7802734375	-951.517761230469	341.2143554687501	1095.230834960938	-871.3471679687502	-229.6848602294922	1173.351806640625	-606.2647705078126	-147.3079528808594	1081.565063476563	-500.3226013183595	-107.9850463867188	1101.964599609375	-519.5079956054689	-84.94393920898439	1052.549438476563	-494.6433410644532	7.649615287780763	1035.187744140625	-496.3489074707032	3.427181482315064	979.5290527343752	-557.5670166015626	259.4109191894532	1067.592163085938	-618.5065917968751	269.9323425292969	1078.65234375	-543.0297241210939	345.2394409179688	1093.921264648438	-626.4865112304689	-413.6335754394532	802.6827392578127	-877.4737548828127	-406.8138732910157	789.9272460937502	-633.3804931640626	-584.6640625000001	843.7073364257815	-747.2111816406251	-593.4647827148439	814.113220214844	-776.1528930664065	-595.0140991210939	809.4871826171877	-720.6284179687501	-220.7105865478516	628.4671630859376	-938.4473266601565	-138.5528717041016	624.4183349609376	-915.8223876953127	-125.643539428711	660.9368896484376	-883.089294433594	-106.3318176269532	576.7469482421876	-906.8374633789065	-55.62737274169923	547.4927978515626	-905.4086914062502	-59.71406173706056	538.4106445312501	-764.9768676757814	132.5890655517578	477.222625732422	-849.9614868164065	134.1785430908203	408.9834594726564	-904.552673339844	162.842758178711	436.994110107422	-882.749694824219	227.2301177978516	393.1504821777345	-848.9046020507815	290.5946044921876	275.4220886230469	-875.4024658203127	275.4080200195313	294.6797180175782	-790.8338012695315	280.4910583496094	207.7684478759766	-834.9727783203127	418.4389953613282	379.4700622558594	-785.046325683594	420.5589599609376	382.4229125976563	-823.653747558594	419.2249755859376	342.8171691894532	-878.7535400390627	-330.8764038085938	582.5204467773439	-584.2528686523439	-264.5699462890626	574.5399169921876	-587.2653198242189	-244.5081024169922	600.9824218750001	-588.4063720703126	-222.8618469238282	506.9720458984376	-612.4221191406251	-122.4590835571289	422.9278564453126	-645.7213134765626	-122.5686721801758	436.8133544921876	-775.8190917968752	-160.9606323242188	289.1032714843751	-757.2431030273439	-219.6724853515626	222.1956024169922	-694.9797363281251	-204.4060058593751	215.1089935302735	-739.8873291015626	-248.4854278564454	193.8892974853516	-772.691101074219	-352.2586059570313	96.64961242675784	-721.1242065429689	-342.2020874023438	129.4764251708985	-807.2506103515627	-432.0426025390626	85.79518890380861	-777.3899536132815	-208.3752899169922	54.29225158691408	-787.744567871094	-208.9720153808594	51.02357101440431	-746.4463500976564	-253.2943420410157	34.27395248413087	-699.3707275390626	
668	3.335	-127.8200454711914	1352.036499023438	-781.1250000000002	-263.2120971679688	1327.863647460938	-806.7324218750002	-287.9194335937501	1310.341796875	-673.2169189453126	-315.4058227539063	1234.528686523438	-738.8535766601564	-527.5791625976564	985.2264404296877	-745.6676635742189	-227.4371490478516	1110.581420898438	-737.7374267578126	-235.5496368408204	1182.238403320313	-871.919860839844	-162.7494354248047	1109.706176757813	-971.8606567382815	-121.1644058227539	1125.347900390625	-948.3803710937502	-102.6101303100586	1077.39208984375	-980.8696899414065	0.3116619288921357	1047.7685546875	-984.3192138671877	-4.372069835662843	995.4340820312502	-936.9909667968752	261.7052001953126	1079.097778320313	-877.3100585937502	264.8282470703126	1073.3515625	-951.515563964844	341.4031372070313	1094.8310546875	-871.2926025390627	-229.4029998779297	1173.170532226563	-606.2269287109376	-147.0061492919922	1081.334716796875	-500.3913574218751	-107.7215270996094	1101.669921875	-519.5718383789064	-84.64473724365236	1052.291381835938	-494.6038818359376	7.875033855438234	1034.94140625	-496.3787231445314	3.675386905670167	979.2066650390627	-557.4986572265626	259.5528259277344	1067.271240234375	-618.2473754882814	270.2597351074219	1078.366455078125	-543.1489257812501	345.4777526855469	1093.582397460938	-626.5850830078126	-413.5726013183595	802.6282348632815	-877.360534667969	-406.6465148925782	789.744812011719	-633.3942260742189	-584.5233154296876	843.572937011719	-747.1394042968751	-593.4917602539064	814.0301513671877	-775.9949951171877	-594.8489990234376	809.400329589844	-720.5841064453126	-220.6062316894532	628.3392944335939	-938.4881591796877	-138.4313659667969	624.2653808593751	-915.8500976562502	-125.5549011230469	660.7612304687501	-883.1585693359377	-106.2272720336914	576.6215209960939	-906.8762817382815	-55.54455566406251	547.3316040039064	-905.5208129882815	-59.59122848510744	538.3037109375001	-765.0395507812501	132.6002807617188	477.0943298339845	-850.0891113281252	134.3161773681641	408.8344116210939	-904.6870117187502	163.0173034667969	436.8015747070314	-882.8653564453127	227.3176574707032	392.9109497070314	-849.0039062500002	290.6601562500001	275.1862182617188	-875.5502929687502	275.4608154296876	294.4689331054688	-790.9519042968752	280.5663757324219	207.5917053222657	-835.0778808593752	418.5894775390626	379.2904663085938	-785.2784423828127	420.554168701172	382.2189025878907	-823.7215576171877	419.4407348632814	342.6576843261719	-878.9414062500002	-330.6901550292969	582.3928222656251	-584.3609008789064	-264.3170471191407	574.4008789062501	-587.4019775390626	-244.3099365234376	600.8848876953126	-588.6329956054689	-222.6017456054688	506.8228149414064	-612.5272216796876	-122.1864700317383	422.8133239746095	-645.8976440429689	-122.3421020507813	436.8104858398439	-776.077087402344	-160.894515991211	289.0157470703126	-757.3891601562501	-219.6168823242188	222.1449890136719	-695.0281372070314	-204.2586059570313	215.0794067382813	-739.7048339843751	-248.4889373779297	193.8495178222657	-772.7501220703127	-352.2539978027344	96.63362884521487	-721.1178588867189	-342.1550903320313	129.4573822021485	-807.2505493164065	-432.0455932617189	85.80677795410158	-777.3845214843752	-208.3553924560547	54.30985641479494	-787.7907714843752	-208.9833221435547	51.0273780822754	-746.4895019531251	-253.2947082519532	34.27387619018555	-699.3710937500001	
